<?xml version="1.0" standalone="no"?><!DOCTYPE svg PUBLIC "-//W3C//DTD SVG 1.1//EN" "http://www.w3.org/Graphics/SVG/1.1/DTD/svg11.dtd"><svg t="1536043827928" class="icon" style="" viewBox="0 0 1024 1024" version="1.1" xmlns="http://www.w3.org/2000/svg" p-id="1467" xmlns:xlink="http://www.w3.org/1999/xlink" width="128" height="128"><defs><style type="text/css"></style></defs><path d="M533.333333 384h76.8l-128 128 8.533334-64h-51.2l106.666666-128-12.8 64z m4.266667 341.333333c64 0 128 8.533333 187.733333 21.333334l136.533334-379.733334C750.933333 320 627.2 298.666667 503.466667 298.666667s-251.733333 21.333333-362.666667 68.266666l136.533333 379.733334c64-12.8 123.733333-17.066667 192-21.333334l34.133334-170.666666 34.133333 170.666666z m-34.133333-469.333333c149.333333 0 290.133333 29.866667 418.133333 85.333333l-166.4 452.266667c-81.066667-21.333333-166.4-29.866667-251.733333-29.866667s-170.666667 8.533333-251.733334 29.866667L85.333333 341.333333c128-55.466667 268.8-85.333333 418.133334-85.333333z" fill="#ffffff" p-id="1468"></path></svg>